<?xml version="1.0"?>
<svg xmlns="http://www.w3.org/2000/svg" xmlns:xlink="http://www.w3.org/1999/xlink" width="128.75" height="88.4375">
	<defs>
		<marker id="CustomMarker-01" markerUnits="strokeWidth" markerWidth="15.000001" markerHeight="9" viewBox="-15 -4.5 15 9" orient="auto-start-reverse">
			<path d="M 0 -0 L -10 -3, -8 -0.5, -8 0.5, -10 3 Z" fill="#000000" stroke="#000000" stroke-linejoin="round" />
		</marker>
	</defs>
	<path d="M -183.368 -47.8949 C -158.737 -113.579, -52 -127.264, 65.6842 -68.4212, 136.842 -28.7369, 183.368 23.2632, 158.737 60.2107, 147.79 93.0529, 88.9474 123.158, -8.21053 127.264, -127.263 110.842, -171.053 52.0001, -182 -19.1579 Z" stroke="none" fill="#77E124" fill-opacity="0.392156839" transform="matrix(0.192308 0 -0 0.192308 -254.475 52.0345)" />
	<path d="M -183.368 -47.8949 C -158.737 -113.579, -52 -127.264, 65.6842 -68.4212, 136.842 -28.7369, 183.368 23.2632, 158.737 60.2107, 147.79 93.0529, 88.9474 123.158, -8.21053 127.264, -127.263 110.842, -171.053 52.0001, -182 -19.1579 Z" fill="none" stroke="#000000" stroke-width="5.19999981" stroke-linecap="round" stroke-linejoin="round" transform="matrix(0.192308 0 -0 0.192308 -254.475 52.0345)" />
	<path d="M -165.256 -57.3075 C -150.176 -112.947, -40.4722 -125.83, 77.2125 -66.9881, 148.37 -27.3036, 194.896 24.6964, 133.564 21.8301, -88.9961 -40.5699, 42.0437 125.83, -28.6762 118.55, -115.735 112.276, -194.896 50.3325, -169.416 -47.9474 Z" stroke="none" fill="#77E124" fill-opacity="0.392156839" transform="matrix(0.192308 0 -0 0.192308 -137.375 51.7589)" />
	<path d="M -165.256 -57.3075 C -150.176 -112.947, -40.4722 -125.83, 77.2125 -66.9881, 148.37 -27.3036, 194.896 24.6964, 133.564 21.8301, -88.9961 -40.5699, 42.0437 125.83, -28.6762 118.55, -115.735 112.276, -194.896 50.3325, -169.416 -47.9474 Z" fill="none" stroke="#000000" stroke-width="5.19999981" stroke-linecap="round" stroke-linejoin="round" transform="matrix(0.192308 0 -0 0.192308 -137.375 51.7589)" />
	<g transform="matrix(1 0 -0 1 -285.021 2.9495)">
		<svg width="189.027878" height="47.9257622">
			<defs />
			<path d="M 11.9519 12.2076 C 11.9519 12.898, 11.8168 13.5501, 11.5466 14.1638, 11.2763 14.7776, 10.9128 15.3088, 10.4565 15.7577, 10.0008 16.2065, 9.46148 16.5655, 8.83859 16.8334, 8.2157 17.1025, 7.5493 17.2365, 6.83824 17.2365, 5.92623 17.2365, 5.05029 17.0613, 4.21042 16.7103, 3.37112 16.3594, 2.63373 15.863, 1.99824 15.2212, 1.34444 14.544, 0.847499 13.7854, 0.507428 12.9455, 0.16793 12.1062, -0.00210571 11.2309, -0.00210571 10.3206, -0.00210571 9.41142, 0.16793 8.5349, 0.507428 7.69217, 0.847499 6.84943, 1.34444 6.09544, 1.99824 5.42904, 2.63373 4.7884, 3.37112 4.28917, 4.21042 3.93192, 5.05029 3.57468, 5.92623 3.39606, 6.83824 3.39548, 7.57449 3.39606, 8.24432 3.54605, 8.84775 3.8449, 9.45175 4.14433, 9.95155 4.51989, 10.3477 4.97103 L 11.3668 3.53289 C 11.4046 3.44186, 11.4864 3.39606, 11.6124 3.39548 L 11.6691 3.39548 C 11.858 3.39606, 11.9519 3.49052, 11.9519 3.67945 L 11.9519 8.68089 C 11.9519 8.86467, 11.858 8.95913, 11.6691 8.96486 L 11.4521 8.96486 C 11.301 8.96543, 11.2065 8.88013, 11.1687 8.70837, 11.1435 8.09235, 11.0193 7.50782, 10.796 6.95478, 10.5727 6.4023, 10.2756 5.9214, 9.9046 5.51205, 9.53362 5.10328, 9.10481 4.77638, 8.61703 4.53192, 8.12925 4.28803, 7.59968 4.16551, 7.02717 4.16494, 6.30352 4.16551, 5.63082 4.31837, 5.00793 4.62352, 4.38504 4.92924, 3.85375 5.35633, 3.41349 5.90537, 2.92914 6.51681, 2.59938 7.2021, 2.42305 7.96239, 2.24671 8.72269, 2.15855 9.50874, 2.15855 10.3206, 2.15855 11.1272, 2.24671 11.9104, 2.42305 12.6707, 2.59938 13.431, 2.92914 14.1163, 3.41349 14.7266, 3.86004 15.2768, 4.3982 15.709, 5.02682 16.0233, 5.65601 16.3382, 6.32871 16.4951, 7.04549 16.4945, 7.63746 16.4951, 8.1928 16.3823, 8.71149 16.1562, 9.23019 15.9306, 9.67846 15.6203, 10.0557 15.2264, 10.433 14.8325, 10.7319 14.3791, 10.9517 13.8661, 11.1721 13.3531, 11.2821 12.8007, 11.2821 12.2076, 11.2821 12.0249, 11.3737 11.9333, 11.5557 11.9327 L 11.6691 11.9327 C 11.858 11.9333, 11.9519 12.0249, 11.9519 12.2076 Z" stroke="none" fill="#000000" />
			<path d="M 21.7723 12.7388 C 21.7723 13.3136, 21.6624 13.8633, 21.442 14.3882, 21.2221 14.9138, 20.9009 15.3775, 20.4796 15.78, 20.0771 16.1716, 19.6116 16.4785, 19.0832 16.7012, 18.5554 16.9239, 17.9954 17.035, 17.4035 17.035, 16.8126 17.035, 16.2527 16.9256, 15.7243 16.7058, 15.1964 16.4859, 14.7276 16.1773, 14.3182 15.78, 13.8911 15.3712, 13.5705 14.9058, 13.3564 14.3837, 13.1423 13.8615, 13.0352 13.3136, 13.0352 12.7388, 13.0352 12.1532, 13.144 11.5887, 13.361 11.0448, 13.578 10.5015, 13.8968 10.0126, 14.3182 9.57859, 14.7213 9.16982, 15.1884 8.84807, 15.7197 8.61277, 16.251 8.37804, 16.8126 8.2601, 17.4035 8.25953, 17.9954 8.2601, 18.5554 8.37804, 19.0832 8.61277, 19.6116 8.84807, 20.0771 9.16982, 20.4796 9.57859, 20.9078 10.0188, 21.2301 10.5089, 21.4471 11.0494, 21.6641 11.5898, 21.7723 12.1532, 21.7723 12.7388 Z M 19.9792 12.5282 C 19.9792 12.0587, 19.9466 11.5944, 19.8801 11.1364, 19.8143 10.6784, 19.6523 10.2599, 19.3947 9.88087, 19.1554 9.55798, 18.8628 9.30607, 18.517 9.12573, 18.1712 8.94597, 17.8002 8.85551, 17.4035 8.85494, 17.0073 8.85551, 16.6363 8.94597, 16.2905 9.12573, 15.9447 9.30607, 15.6522 9.55798, 15.4129 9.88087, 15.1552 10.2542, 14.9932 10.6709, 14.9268 11.1318, 14.861 11.5933, 14.8278 12.0587, 14.8278 12.5282, 14.8278 13.0234, 14.8581 13.5134, 14.9176 13.9989, 14.9777 14.4844, 15.1426 14.9316, 15.4129 15.3403, 15.627 15.6586, 15.9132 15.9105, 16.2716 16.0966, 16.63 16.2833, 17.0073 16.376, 17.4035 16.3754, 17.8002 16.376, 18.1775 16.2833, 18.5359 16.0966, 18.8943 15.9105, 19.1805 15.6586, 19.3947 15.3403, 19.6649 14.9316, 19.8303 14.4844, 19.8899 13.9989, 19.9494 13.5134, 19.9792 13.0234, 19.9792 12.5282 Z" stroke="none" fill="#000000" />
			<path d="M 32.5222 16.8334 C 31.7236 16.7911, 30.9621 16.7693, 30.2385 16.7693, 29.5028 16.7693, 28.7511 16.7911, 27.984 16.8334 L 27.984 16.064 C 28.2668 16.0646, 28.5261 16.06, 28.762 16.0508, 28.9979 16.0417, 29.1759 16.0096, 29.295 15.9541, 29.3648 15.918, 29.4106 15.8556, 29.4324 15.7668, 29.4542 15.6787, 29.465 15.5819, 29.465 15.4777 L 29.465 11.0076 C 29.465 10.703, 29.4496 10.4127, 29.4181 10.1379, 29.3866 9.86313, 29.2984 9.61294, 29.1536 9.38623, 29.0654 9.24024, 28.9349 9.13375, 28.762 9.06619, 28.5891 8.99921, 28.4053 8.96543, 28.2101 8.96486, 27.8517 8.96543, 27.5168 9.04043, 27.2053 9.18985, 26.8939 9.33985, 26.6283 9.54138, 26.4084 9.79443, 26.1886 10.048, 26.0122 10.3458, 25.88 10.6875, 25.7483 11.0299, 25.6819 11.3866, 25.6819 11.7587 L 25.6819 15.4777 C 25.6819 15.5819, 25.6945 15.6787, 25.7197 15.7668, 25.7449 15.8556, 25.7947 15.918, 25.8702 15.9541, 25.9899 16.0096, 26.1691 16.0417, 26.4084 16.0508, 26.6477 16.06, 26.9053 16.0646, 27.1819 16.064 L 27.1819 16.8243 C 26.8613 16.8123, 26.5653 16.8031, 26.295 16.7968, 26.0248 16.7911, 25.7603 16.7819, 25.5021 16.7693 L 24.9079 16.7693 C 24.1722 16.7693, 23.4205 16.7911, 22.6533 16.8334 L 22.6533 16.064 C 22.9361 16.0646, 23.1955 16.06, 23.4314 16.0508, 23.6672 16.0417, 23.8453 16.0096, 23.9644 15.9541, 24.0399 15.918, 24.0903 15.8556, 24.1155 15.7668, 24.1407 15.6787, 24.1533 15.5819, 24.1533 15.4777 L 24.1533 10.2748 C 24.1533 10.1042, 24.1458 9.949, 24.1298 9.80817, 24.1138 9.6679, 24.0525 9.55454, 23.9455 9.46867, 23.839 9.39596, 23.6661 9.35359, 23.4268 9.341, 23.188 9.32897, 22.9304 9.32268, 22.6533 9.3221 L 22.6533 8.56181, 24.2758 8.44273, 25.5777 8.34197, 25.5777 9.91751 C 25.6973 9.63698, 26.0042 9.30607, 26.4977 8.92421, 26.9918 8.54292, 27.5752 8.3517, 28.2479 8.35113, 28.6005 8.3517, 28.9635 8.39292, 29.3379 8.47536, 29.7124 8.5578, 30.041 8.73643, 30.3238 9.01123, 30.6066 9.28604, 30.7921 9.60206, 30.8803 9.95931, 30.9684 10.3166, 31.0125 10.6664, 31.0125 11.0076 L 31.0125 15.4777 C 31.0125 15.5819, 31.0251 15.6787, 31.0503 15.7668, 31.0755 15.8556, 31.1259 15.918, 31.2009 15.9541, 31.3205 16.0096, 31.4997 16.0417, 31.739 16.0508, 31.9784 16.06, 32.2394 16.0646, 32.5222 16.064 L 32.5222 16.8334 Z" stroke="none" fill="#000000" />
			<path d="M 42.5806 9.3221 C 42.3356 9.32268, 42.1232 9.34558, 41.944 9.39138, 41.7648 9.43718, 41.6056 9.50874, 41.4671 9.60607, 41.3159 9.71027, 41.1888 9.83736, 41.0852 9.98679, 40.9816 10.1368, 40.8917 10.2965, 40.8161 10.4671 L 38.2026 16.7693 C 38.127 16.9468, 37.9919 17.035, 37.7967 17.035 L 37.74 17.035 C 37.5517 17.035, 37.4194 16.9468, 37.3438 16.7693 L 34.5231 9.94499 C 34.4727 9.84194, 34.4177 9.73946, 34.3582 9.6387, 34.2987 9.53794, 34.2214 9.46638, 34.1269 9.42287, 34.0136 9.36848, 33.8533 9.33813, 33.6454 9.33184, 33.4382 9.32611, 33.2115 9.32268, 32.9664 9.3221 L 32.9664 8.54349 C 33.6202 8.59902, 34.2431 8.62937, 34.8345 8.63509, 34.9038 8.63567, 34.9794 8.62651, 35.0607 8.60761, 35.7214 8.60818, 36.4129 8.587, 37.1366 8.54349 L 37.1366 9.3221 C 36.9168 9.32268, 36.7313 9.32897, 36.5801 9.341, 36.429 9.35359, 36.2904 9.39596, 36.1645 9.46867, 36.0889 9.5242, 36.0511 9.60034, 36.0511 9.69767, 36.0511 9.74691, 36.0608 9.80817, 36.0797 9.88087 L 38.2026 15.0197, 40.1274 10.3938 C 40.1841 10.2845, 40.2121 10.1654, 40.2121 10.0366 L 40.2121 9.99996 C 40.1995 9.87229, 40.1543 9.75206, 40.0753 9.6387, 39.9969 9.52592, 39.8932 9.44519, 39.7644 9.39596, 39.6356 9.34729, 39.4701 9.32268, 39.2686 9.3221 L 39.2686 8.54349 C 39.86 8.587, 40.4136 8.60818, 40.9295 8.60761, 40.9861 8.62021, 41.0428 8.62937, 41.0989 8.63509, 41.5581 8.63567, 42.0522 8.60532, 42.5806 8.54349 L 42.5806 9.3221 Z" stroke="none" fill="#000000" />
			<path d="M 50.8521 14.4976 C 50.8023 14.8949, 50.6752 15.2493, 50.4703 15.5607, 50.2659 15.8722, 50.0128 16.1378, 49.7106 16.3577, 49.4089 16.5775, 49.0722 16.7453, 48.7012 16.8609, 48.3302 16.9771, 47.9467 17.035, 47.5499 17.035, 46.9591 17.035, 46.3963 16.9222, 45.8616 16.6966, 45.3269 16.471, 44.8551 16.1533, 44.4463 15.7434, 44.0187 15.3163, 43.7009 14.8371, 43.4931 14.3058, 43.2859 13.7745, 43.1817 13.2129, 43.1817 12.6198, 43.1817 12.0461, 43.2807 11.4954, 43.4788 10.9669, 43.6769 10.4391, 43.9746 9.96389, 44.3708 9.54195, 44.748 9.13318, 45.1883 8.81772, 45.6915 8.59445, 46.1948 8.37174, 46.7232 8.2601, 47.2763 8.25953, 47.7675 8.2601, 48.2438 8.34254, 48.7058 8.50742, 49.1684 8.67231, 49.5755 8.94081, 49.9275 9.31294, 50.2802 9.72859, 50.5224 10.1854, 50.6541 10.683, 50.7863 11.181, 50.8521 11.6831, 50.8521 12.1892, 50.8521 12.3913, 50.7485 12.4921, 50.5413 12.4915 L 44.9742 12.4915, 44.9742 12.6198 C 44.9742 13.0783, 45.0154 13.5301, 45.0973 13.9755, 45.1729 14.477, 45.352 14.9287, 45.6349 15.3312, 45.8742 15.6432, 46.1679 15.8951, 46.5171 16.0875, 46.8663 16.2798, 47.2356 16.376, 47.6255 16.3754, 47.9215 16.376, 48.206 16.3291, 48.4797 16.234, 48.7533 16.1396, 49.0069 16.0039, 49.2394 15.8264, 49.4718 15.6495, 49.6688 15.4434, 49.8291 15.2081, 49.9894 14.9733, 50.1073 14.7117, 50.1823 14.4243, 50.2201 14.2783, 50.3209 14.205, 50.4846 14.2045 L 50.5882 14.2045 C 50.7583 14.2417, 50.8464 14.3396, 50.8521 14.4976 Z M 49.3711 11.9144 C 49.3585 11.5423, 49.315 11.161, 49.2394 10.77, 49.1638 10.3795, 49.0127 10.016, 48.786 9.67935, 48.6102 9.42344, 48.3904 9.22192, 48.1259 9.07535, 47.8619 8.92879, 47.5785 8.85551, 47.2763 8.85494, 46.9247 8.85551, 46.6007 8.95055, 46.3047 9.13947, 46.0093 9.32897, 45.7608 9.5826, 45.5593 9.89977, 45.3583 10.2175, 45.2198 10.5519, 45.1442 10.9028, 45.0687 11.2543, 45.0217 11.5915, 45.0028 11.9144 L 49.3711 11.9144 Z" stroke="none" fill="#000000" />
			<path d="M 61.1962 16.8334 C 60.5607 16.7911, 59.9665 16.7693, 59.4128 16.7693 L 59.1489 16.7693 C 58.4951 16.7819, 57.8064 16.8002, 57.0827 16.8243 L 57.0827 16.064 C 57.2339 16.0646, 57.3581 16.0497, 57.4554 16.0188, 57.5528 15.9884, 57.6266 15.9392, 57.677 15.8716, 57.74 15.8109, 57.7749 15.7531, 57.7806 15.6976, 57.7806 15.6432, 57.7589 15.5882, 57.7148 15.5327 L 55.9784 13.3343, 54.6009 15.0197 C 54.507 15.1239, 54.444 15.2373, 54.4125 15.3586, 54.3999 15.4142, 54.3936 15.4783, 54.3936 15.551, 54.3936 15.6065, 54.3999 15.6707, 54.4125 15.7434, 54.4629 15.9575, 54.6421 16.0646, 54.9501 16.064 L 54.9501 16.8243 C 54.3089 16.8002, 53.7049 16.7819, 53.1387 16.7693 L 52.8839 16.7693 C 52.3939 16.7693, 51.8683 16.7911, 51.3084 16.8334 L 51.3084 16.064 C 51.8746 16.0646, 52.3555 15.9667, 52.7517 15.7709, 52.9595 15.6798, 53.1547 15.5562, 53.3368 15.4004, 53.5194 15.2447, 53.686 15.0816, 53.8366 14.9098 L 55.5633 12.8121, 53.3179 9.96332 C 53.224 9.86026, 53.125 9.75664, 53.0208 9.65244, 52.9171 9.54882, 52.8021 9.4721, 52.6761 9.42287, 52.5318 9.36848, 52.3509 9.33813, 52.1339 9.33184, 51.917 9.32611, 51.6731 9.32268, 51.4029 9.3221 L 51.4029 8.54349 C 52.0446 8.59902, 52.6612 8.62937, 53.2521 8.63509, 53.3087 8.63567, 53.378 8.62651, 53.4593 8.60761, 54.12 8.60818, 54.8121 8.587, 55.5352 8.54349 L 55.5352 9.3221 C 55.2398 9.32268, 55.0291 9.3868, 54.9032 9.51447, 54.8465 9.58202, 54.8179 9.64328, 54.8179 9.69767, 54.8179 9.7532, 54.8368 9.8053, 54.8746 9.85339 L 56.4032 11.7862, 57.5636 10.3755 C 57.7211 10.1992, 57.7995 10.0097, 57.7995 9.80759, 57.7995 9.7532, 57.7932 9.70111, 57.7806 9.65187, 57.7497 9.56084, 57.693 9.48298, 57.6111 9.41886, 57.5293 9.35474, 57.4033 9.32268, 57.2333 9.3221 L 57.2333 8.54349 C 57.8751 8.587, 58.4854 8.60818, 59.0636 8.60761, 59.1266 8.62021, 59.1867 8.62937, 59.2428 8.63509, 59.7397 8.63567, 60.2808 8.60532, 60.8659 8.54349 L 60.8659 9.3221 C 60.3002 9.32268, 59.8159 9.42058, 59.4128 9.61523, 59.1993 9.7137, 59.0029 9.83736, 58.8232 9.98679, 58.644 10.1368, 58.4819 10.3028, 58.3371 10.4854 L 56.8371 12.3083, 59.2806 15.4228 C 59.3756 15.5396, 59.4712 15.6449, 59.5686 15.7394, 59.6659 15.8344, 59.7838 15.906, 59.9224 15.9541, 60.0672 16.0096, 60.2481 16.0417, 60.4651 16.0508, 60.6821 16.06, 60.926 16.0646, 61.1962 16.064 L 61.1962 16.8334 Z" stroke="none" fill="#000000" />
			<rect />
		</svg>
	</g>
	<g transform="matrix(1 0 -0 1 -188.323 2.9495)">
		<svg width="309.083679" height="47.9257622">
			<defs />
			<path d="M 13.356 4.57714 C 13.0417 4.57772, 12.7588 4.59317, 12.5069 4.62352, 12.2556 4.65443, 12.0289 4.73344, 11.8274 4.86111, 11.6768 4.94699, 11.5623 5.06492, 11.4833 5.21435, 11.4049 5.36434, 11.3654 5.52121, 11.3654 5.68552 L 11.3654 16.522 C 11.3654 16.7241, 11.2646 16.8243, 11.0631 16.8243 L 10.9503 16.8243 C 10.8438 16.8243, 10.7585 16.7819, 10.6955 16.696 L 2.67581 5.20919 C 2.62543 5.13649, 2.63802 5.13649, 2.71359 5.20919 L 2.71359 14.9648 C 2.71359 15.3071, 2.8676 15.5791, 3.17561 15.78, 3.38343 15.9088, 3.61129 15.9884, 3.85976 16.0188, 4.10823 16.0497, 4.3899 16.0646, 4.70421 16.064 L 4.70421 16.8334 C 3.89296 16.7911, 3.10691 16.7693, 2.34547 16.7693, 1.5972 16.7693, 0.814005 16.7911, -0.00411111 16.8334 L -0.00411111 16.064 C 0.310769 16.0646, 0.591872 16.0479, 0.840341 16.0142, 1.08881 15.981, 1.31724 15.9025, 1.52449 15.78, 1.82677 15.5854, 1.98078 15.3134, 1.98708 14.9648 L 1.98708 4.70539 C 1.99338 4.70596, 1.98364 4.6968, 1.95845 4.67791, 1.7575 4.62352, 1.4764 4.59317, 1.11457 4.58688, 0.752747 4.58115, 0.380043 4.57772, -0.00411111 4.57714 L -0.00411111 3.82601, 3.65709 3.82601 C 3.76415 3.82658, 3.84888 3.86952, 3.91186 3.95425 L 10.6388 13.5999, 10.6388 5.68552 C 10.6388 5.52121, 10.5999 5.36549, 10.5209 5.21893, 10.4425 5.07236, 10.3308 4.95042, 10.186 4.85195, 9.97874 4.72428, 9.74916 4.64642, 9.49726 4.61894, 9.24593 4.59146, 8.96311 4.57772, 8.64823 4.57714 L 8.64823 3.82601 C 9.47207 3.8512, 10.2581 3.86322, 11.007 3.86265, 11.7684 3.86322, 12.551 3.8512, 13.356 3.82601 L 13.356 4.57714 Z" stroke="none" fill="#000000" />
			<path d="M 22.9889 12.7388 C 22.9889 13.3136, 22.879 13.8633, 22.6585 14.3882, 22.4387 14.9138, 22.1175 15.3775, 21.6961 15.78, 21.2937 16.1716, 20.8282 16.4785, 20.2998 16.7012, 19.7719 16.9239, 19.212 17.035, 18.6201 17.035, 18.0292 17.035, 17.4693 16.9256, 16.9409 16.7058, 16.413 16.4859, 15.9441 16.1773, 15.5348 15.78, 15.1077 15.3712, 14.7871 14.9058, 14.573 14.3837, 14.3589 13.8615, 14.2518 13.3136, 14.2518 12.7388, 14.2518 12.1532, 14.3606 11.5887, 14.5776 11.0448, 14.7945 10.5015, 15.1134 10.0126, 15.5348 9.57859, 15.9378 9.16982, 16.405 8.84807, 16.9363 8.61277, 17.4676 8.37804, 18.0292 8.2601, 18.6201 8.25953, 19.212 8.2601, 19.7719 8.37804, 20.2998 8.61277, 20.8282 8.84807, 21.2937 9.16982, 21.6961 9.57859, 22.1244 10.0188, 22.4467 10.5089, 22.6637 11.0494, 22.8807 11.5898, 22.9889 12.1532, 22.9889 12.7388 Z M 21.1958 12.5282 C 21.1958 12.0587, 21.1631 11.5944, 21.0967 11.1364, 21.0309 10.6784, 20.8689 10.2599, 20.6112 9.88087, 20.3719 9.55798, 20.0794 9.30607, 19.7336 9.12573, 19.3878 8.94597, 19.0168 8.85551, 18.6201 8.85494, 18.2239 8.85551, 17.8529 8.94597, 17.5071 9.12573, 17.1613 9.30607, 16.8687 9.55798, 16.6294 9.88087, 16.3718 10.2542, 16.2098 10.6709, 16.1434 11.1318, 16.0775 11.5933, 16.0443 12.0587, 16.0443 12.5282, 16.0443 13.0234, 16.0747 13.5134, 16.1342 13.9989, 16.1943 14.4844, 16.3592 14.9316, 16.6294 15.3403, 16.8436 15.6586, 17.1298 15.9105, 17.4882 16.0966, 17.8466 16.2833, 18.2239 16.376, 18.6201 16.3754, 19.0168 16.376, 19.3941 16.2833, 19.7525 16.0966, 20.1109 15.9105, 20.3971 15.6586, 20.6112 15.3403, 20.8815 14.9316, 21.0469 14.4844, 21.1065 13.9989, 21.166 13.5134, 21.1958 13.0234, 21.1958 12.5282 Z" stroke="none" fill="#000000" />
			<path d="M 33.7388 16.8334 C 32.9402 16.7911, 32.1787 16.7693, 31.4551 16.7693, 30.7194 16.7693, 29.9677 16.7911, 29.2005 16.8334 L 29.2005 16.064 C 29.4834 16.0646, 29.7427 16.06, 29.9786 16.0508, 30.2145 16.0417, 30.3925 16.0096, 30.5116 15.9541, 30.5814 15.918, 30.6272 15.8556, 30.649 15.7668, 30.6707 15.6787, 30.6816 15.5819, 30.6816 15.4777 L 30.6816 11.0076 C 30.6816 10.703, 30.6662 10.4127, 30.6347 10.1379, 30.6032 9.86313, 30.515 9.61294, 30.3702 9.38623, 30.282 9.24024, 30.1515 9.13375, 29.9786 9.06619, 29.8057 8.99921, 29.6219 8.96543, 29.4267 8.96486, 29.0683 8.96543, 28.7334 9.04043, 28.4219 9.18985, 28.1105 9.33985, 27.8448 9.54138, 27.625 9.79443, 27.4051 10.048, 27.2288 10.3458, 27.0966 10.6875, 26.9649 11.0299, 26.8985 11.3866, 26.8985 11.7587 L 26.8985 15.4777 C 26.8985 15.5819, 26.9111 15.6787, 26.9363 15.7668, 26.9615 15.8556, 27.0113 15.918, 27.0868 15.9541, 27.2065 16.0096, 27.3857 16.0417, 27.625 16.0508, 27.8643 16.06, 28.1219 16.0646, 28.3985 16.064 L 28.3985 16.8243 C 28.0778 16.8123, 27.7819 16.8031, 27.5116 16.7968, 27.2414 16.7911, 26.9769 16.7819, 26.7187 16.7693 L 26.1244 16.7693 C 25.3888 16.7693, 24.6371 16.7911, 23.8699 16.8334 L 23.8699 16.064 C 24.1527 16.0646, 24.4121 16.06, 24.6479 16.0508, 24.8838 16.0417, 25.0619 16.0096, 25.1809 15.9541, 25.2565 15.918, 25.3069 15.8556, 25.3321 15.7668, 25.3573 15.6787, 25.3699 15.5819, 25.3699 15.4777 L 25.3699 10.2748 C 25.3699 10.1042, 25.3624 9.949, 25.3464 9.80817, 25.3304 9.6679, 25.2691 9.55454, 25.1621 9.46867, 25.0556 9.39596, 24.8827 9.35359, 24.6434 9.341, 24.4046 9.32897, 24.147 9.32268, 23.8699 9.3221 L 23.8699 8.56181, 25.4924 8.44273, 26.7943 8.34197, 26.7943 9.91751 C 26.9139 9.63698, 27.2208 9.30607, 27.7143 8.92421, 28.2084 8.54292, 28.7918 8.3517, 29.4645 8.35113, 29.8171 8.3517, 30.1801 8.39292, 30.5545 8.47536, 30.9289 8.5578, 31.2576 8.73643, 31.5404 9.01123, 31.8232 9.28604, 32.0087 9.60206, 32.0969 9.95931, 32.185 10.3166, 32.2291 10.6664, 32.2291 11.0076 L 32.2291 15.4777 C 32.2291 15.5819, 32.2417 15.6787, 32.2669 15.7668, 32.2921 15.8556, 32.3425 15.918, 32.4175 15.9541, 32.5371 16.0096, 32.7163 16.0417, 32.9556 16.0508, 33.1949 16.06, 33.456 16.0646, 33.7388 16.064 L 33.7388 16.8334 Z" stroke="none" fill="#000000" />
			<path d="M 52.7537 12.2076 C 52.7537 12.898, 52.6186 13.5501, 52.3484 14.1638, 52.0782 14.7776, 51.7146 15.3088, 51.2583 15.7577, 50.8026 16.2065, 50.2633 16.5655, 49.6404 16.8334, 49.0175 17.1025, 48.3511 17.2365, 47.6401 17.2365, 46.7281 17.2365, 45.8521 17.0613, 45.0122 16.7103, 44.1729 16.3594, 43.4355 15.863, 42.8001 15.2212, 42.1463 14.544, 41.6493 13.7854, 41.3092 12.9455, 40.9697 12.1062, 40.7997 11.2309, 40.7997 10.3206, 40.7997 9.41142, 40.9697 8.5349, 41.3092 7.69217, 41.6493 6.84943, 42.1463 6.09544, 42.8001 5.42904, 43.4355 4.7884, 44.1729 4.28917, 45.0122 3.93192, 45.8521 3.57468, 46.7281 3.39606, 47.6401 3.39548, 48.3763 3.39606, 49.0461 3.54605, 49.6496 3.8449, 50.2536 4.14433, 50.7534 4.51989, 51.1495 4.97103 L 52.1686 3.53289 C 52.2064 3.44186, 52.2883 3.39606, 52.4142 3.39548 L 52.4709 3.39548 C 52.6598 3.39606, 52.7537 3.49052, 52.7537 3.67945 L 52.7537 8.68089 C 52.7537 8.86467, 52.6598 8.95913, 52.4709 8.96486 L 52.2539 8.96486 C 52.1028 8.96543, 52.0083 8.88013, 51.9705 8.70837, 51.9453 8.09235, 51.8211 7.50782, 51.5978 6.95478, 51.3745 6.4023, 51.0774 5.9214, 50.7064 5.51205, 50.3354 5.10328, 49.9066 4.77638, 49.4188 4.53192, 48.9311 4.28803, 48.4015 4.16551, 47.829 4.16494, 47.1053 4.16551, 46.4326 4.31837, 45.8097 4.62352, 45.1869 4.92924, 44.6556 5.35633, 44.2153 5.90537, 43.731 6.51681, 43.4012 7.2021, 43.2249 7.96239, 43.0485 8.72269, 42.9604 9.50874, 42.9604 10.3206, 42.9604 11.1272, 43.0485 11.9104, 43.2249 12.6707, 43.4012 13.431, 43.731 14.1163, 44.2153 14.7266, 44.6619 15.2768, 45.2 15.709, 45.8286 16.0233, 46.4578 16.3382, 47.1305 16.4951, 47.8473 16.4945, 48.4393 16.4951, 48.9946 16.3823, 49.5133 16.1562, 50.032 15.9306, 50.4803 15.6203, 50.8576 15.2264, 51.2348 14.8325, 51.5337 14.3791, 51.7535 13.8661, 51.974 13.3531, 52.0839 12.8007, 52.0839 12.2076, 52.0839 12.0249, 52.1755 11.9333, 52.3575 11.9327 L 52.4709 11.9327 C 52.6598 11.9333, 52.7537 12.0249, 52.7537 12.2076 Z" stroke="none" fill="#000000" />
			<path d="M 62.5768 12.7388 C 62.5768 13.3136, 62.4668 13.8633, 62.2464 14.3882, 62.0266 14.9138, 61.7054 15.3775, 61.284 15.78, 60.8816 16.1716, 60.4161 16.4785, 59.8877 16.7012, 59.3598 16.9239, 58.7999 17.035, 58.2079 17.035, 57.6171 17.035, 57.0572 16.9256, 56.5288 16.7058, 56.0009 16.4859, 55.532 16.1773, 55.1227 15.78, 54.6956 15.3712, 54.375 14.9058, 54.1609 14.3837, 53.9468 13.8615, 53.8397 13.3136, 53.8397 12.7388, 53.8397 12.1532, 53.9485 11.5887, 54.1655 11.0448, 54.3824 10.5015, 54.7013 10.0126, 55.1227 9.57859, 55.5257 9.16982, 55.9929 8.84807, 56.5242 8.61277, 57.0555 8.37804, 57.6171 8.2601, 58.2079 8.25953, 58.7999 8.2601, 59.3598 8.37804, 59.8877 8.61277, 60.4161 8.84807, 60.8816 9.16982, 61.284 9.57859, 61.7123 10.0188, 62.0346 10.5089, 62.2516 11.0494, 62.4686 11.5898, 62.5768 12.1532, 62.5768 12.7388 Z M 60.7837 12.5282 C 60.7837 12.0587, 60.751 11.5944, 60.6846 11.1364, 60.6188 10.6784, 60.4568 10.2599, 60.1991 9.88087, 59.9598 9.55798, 59.6673 9.30607, 59.3215 9.12573, 58.9757 8.94597, 58.6047 8.85551, 58.2079 8.85494, 57.8118 8.85551, 57.4408 8.94597, 57.095 9.12573, 56.7492 9.30607, 56.4566 9.55798, 56.2173 9.88087, 55.9597 10.2542, 55.7977 10.6709, 55.7313 11.1318, 55.6654 11.5933, 55.6322 12.0587, 55.6322 12.5282, 55.6322 13.0234, 55.6626 13.5134, 55.7221 13.9989, 55.7822 14.4844, 55.9471 14.9316, 56.2173 15.3403, 56.4314 15.6586, 56.7177 15.9105, 57.0761 16.0966, 57.4345 16.2833, 57.8118 16.376, 58.2079 16.3754, 58.6047 16.376, 58.982 16.2833, 59.3404 16.0966, 59.6988 15.9105, 59.985 15.6586, 60.1991 15.3403, 60.4694 14.9316, 60.6348 14.4844, 60.6944 13.9989, 60.7539 13.5134, 60.7837 13.0234, 60.7837 12.5282 Z" stroke="none" fill="#000000" />
			<path d="M 73.3267 16.8334 C 72.5281 16.7911, 71.7666 16.7693, 71.043 16.7693, 70.3073 16.7693, 69.5556 16.7911, 68.7884 16.8334 L 68.7884 16.064 C 69.0712 16.0646, 69.3306 16.06, 69.5665 16.0508, 69.8023 16.0417, 69.9804 16.0096, 70.0995 15.9541, 70.1693 15.918, 70.2151 15.8556, 70.2369 15.7668, 70.2586 15.6787, 70.2695 15.5819, 70.2695 15.4777 L 70.2695 11.0076 C 70.2695 10.703, 70.2541 10.4127, 70.2226 10.1379, 70.1911 9.86313, 70.1029 9.61294, 69.9581 9.38623, 69.8699 9.24024, 69.7394 9.13375, 69.5665 9.06619, 69.3936 8.99921, 69.2098 8.96543, 69.0146 8.96486, 68.6562 8.96543, 68.3213 9.04043, 68.0098 9.18985, 67.6984 9.33985, 67.4327 9.54138, 67.2129 9.79443, 66.993 10.048, 66.8167 10.3458, 66.6844 10.6875, 66.5528 11.0299, 66.4864 11.3866, 66.4864 11.7587 L 66.4864 15.4777 C 66.4864 15.5819, 66.499 15.6787, 66.5241 15.7668, 66.5493 15.8556, 66.5991 15.918, 66.6747 15.9541, 66.7944 16.0096, 66.9736 16.0417, 67.2129 16.0508, 67.4522 16.06, 67.7098 16.0646, 67.9863 16.064 L 67.9863 16.8243 C 67.6657 16.8123, 67.3697 16.8031, 67.0995 16.7968, 66.8293 16.7911, 66.5648 16.7819, 66.3066 16.7693 L 65.7123 16.7693 C 64.9767 16.7693, 64.225 16.7911, 63.4578 16.8334 L 63.4578 16.064 C 63.7406 16.0646, 64 16.06, 64.2358 16.0508, 64.4717 16.0417, 64.6497 16.0096, 64.7688 15.9541, 64.8444 15.918, 64.8948 15.8556, 64.92 15.7668, 64.9452 15.6787, 64.9578 15.5819, 64.9578 15.4777 L 64.9578 10.2748 C 64.9578 10.1042, 64.9503 9.949, 64.9343 9.80817, 64.9183 9.6679, 64.857 9.55454, 64.7499 9.46867, 64.6435 9.39596, 64.4706 9.35359, 64.2312 9.341, 63.9925 9.32897, 63.7349 9.32268, 63.4578 9.3221 L 63.4578 8.56181, 65.0803 8.44273, 66.3822 8.34197, 66.3822 9.91751 C 66.5018 9.63698, 66.8087 9.30607, 67.3022 8.92421, 67.7963 8.54292, 68.3797 8.3517, 69.0524 8.35113, 69.405 8.3517, 69.768 8.39292, 70.1424 8.47536, 70.5168 8.5578, 70.8455 8.73643, 71.1283 9.01123, 71.4111 9.28604, 71.5966 9.60206, 71.6848 9.95931, 71.7729 10.3166, 71.817 10.6664, 71.817 11.0076 L 71.817 15.4777 C 71.817 15.5819, 71.8296 15.6787, 71.8548 15.7668, 71.88 15.8556, 71.9304 15.918, 72.0054 15.9541, 72.125 16.0096, 72.3042 16.0417, 72.5435 16.0508, 72.7828 16.06, 73.0439 16.0646, 73.3267 16.064 L 73.3267 16.8334 Z" stroke="none" fill="#000000" />
			<path d="M 83.3851 9.3221 C 83.14 9.32268, 82.9276 9.34558, 82.7484 9.39138, 82.5692 9.43718, 82.4101 9.50874, 82.2715 9.60607, 82.1204 9.71027, 81.9933 9.83736, 81.8897 9.98679, 81.786 10.1368, 81.6962 10.2965, 81.6206 10.4671 L 79.0071 16.7693 C 78.9315 16.9468, 78.7964 17.035, 78.6012 17.035 L 78.5445 17.035 C 78.3561 17.035, 78.2239 16.9468, 78.1483 16.7693 L 75.3276 9.94499 C 75.2772 9.84194, 75.2222 9.73946, 75.1627 9.6387, 75.1031 9.53794, 75.0258 9.46638, 74.9314 9.42287, 74.818 9.36848, 74.6577 9.33813, 74.4499 9.33184, 74.2427 9.32611, 74.0159 9.32268, 73.7709 9.3221 L 73.7709 8.54349 C 74.4247 8.59902, 75.0476 8.62937, 75.639 8.63509, 75.7083 8.63567, 75.7838 8.62651, 75.8651 8.60761, 76.5258 8.60818, 77.2174 8.587, 77.9411 8.54349 L 77.9411 9.3221 C 77.7212 9.32268, 77.5357 9.32897, 77.3846 9.341, 77.2334 9.35359, 77.0949 9.39596, 76.9689 9.46867, 76.8934 9.5242, 76.8556 9.60034, 76.8556 9.69767, 76.8556 9.74691, 76.8653 9.80817, 76.8842 9.88087 L 79.0071 15.0197, 80.9319 10.3938 C 80.9885 10.2845, 81.0166 10.1654, 81.0166 10.0366 L 81.0166 9.99996 C 81.004 9.87229, 80.9588 9.75206, 80.8798 9.6387, 80.8013 9.52592, 80.6977 9.44519, 80.5689 9.39596, 80.4401 9.34729, 80.2746 9.32268, 80.0731 9.3221 L 80.0731 8.54349 C 80.6645 8.587, 81.2181 8.60818, 81.7339 8.60761, 81.7906 8.62021, 81.8473 8.62937, 81.9034 8.63509, 82.3626 8.63567, 82.8566 8.60532, 83.3851 8.54349 L 83.3851 9.3221 Z" stroke="none" fill="#000000" />
			<path d="M 91.6566 14.4976 C 91.6068 14.8949, 91.4797 15.2493, 91.2747 15.5607, 91.0704 15.8722, 90.8173 16.1378, 90.515 16.3577, 90.2133 16.5775, 89.8767 16.7453, 89.5057 16.8609, 89.1347 16.9771, 88.7511 17.035, 88.3544 17.035, 87.7635 17.035, 87.2008 16.9222, 86.666 16.6966, 86.1313 16.471, 85.6596 16.1533, 85.2508 15.7434, 84.8231 15.3163, 84.5054 14.8371, 84.2976 14.3058, 84.0903 13.7745, 83.9861 13.2129, 83.9861 12.6198, 83.9861 12.0461, 84.0852 11.4954, 84.2833 10.9669, 84.4813 10.4391, 84.7791 9.96389, 85.1752 9.54195, 85.5525 9.13318, 85.9928 8.81772, 86.496 8.59445, 86.9992 8.37174, 87.5277 8.2601, 88.0807 8.25953, 88.5719 8.2601, 89.0483 8.34254, 89.5103 8.50742, 89.9729 8.67231, 90.3799 8.94081, 90.732 9.31294, 91.0847 9.72859, 91.3268 10.1854, 91.4585 10.683, 91.5908 11.181, 91.6566 11.6831, 91.6566 12.1892, 91.6566 12.3913, 91.553 12.4921, 91.3457 12.4915 L 85.7787 12.4915, 85.7787 12.6198 C 85.7787 13.0783, 85.8199 13.5301, 85.9017 13.9755, 85.9773 14.477, 86.1565 14.9287, 86.4393 15.3312, 86.6786 15.6432, 86.9723 15.8951, 87.3216 16.0875, 87.6708 16.2798, 88.0401 16.376, 88.4299 16.3754, 88.7259 16.376, 89.0105 16.3291, 89.2841 16.234, 89.5578 16.1396, 89.8114 16.0039, 90.0439 15.8264, 90.2763 15.6495, 90.4732 15.4434, 90.6335 15.2081, 90.7938 14.9733, 90.9118 14.7117, 90.9868 14.4243, 91.0246 14.2783, 91.1253 14.205, 91.2891 14.2045 L 91.3927 14.2045 C 91.5627 14.2417, 91.6509 14.3396, 91.6566 14.4976 Z M 90.1755 11.9144 C 90.1629 11.5423, 90.1194 11.161, 90.0439 10.77, 89.9683 10.3795, 89.8171 10.016, 89.5904 9.67935, 89.4147 9.42344, 89.1948 9.22192, 88.9303 9.07535, 88.6664 8.92879, 88.383 8.85551, 88.0807 8.85494, 87.7292 8.85551, 87.4052 8.95055, 87.1092 9.13947, 86.8138 9.32897, 86.5653 9.5826, 86.3638 9.89977, 86.1628 10.2175, 86.0243 10.5519, 85.9487 10.9028, 85.8731 11.2543, 85.8262 11.5915, 85.8073 11.9144 L 90.1755 11.9144 Z" stroke="none" fill="#000000" />
			<path d="M 102.001 16.8334 C 101.365 16.7911, 100.771 16.7693, 100.217 16.7693 L 99.9534 16.7693 C 99.2996 16.7819, 98.6108 16.8002, 97.8872 16.8243 L 97.8872 16.064 C 98.0383 16.0646, 98.1626 16.0497, 98.2599 16.0188, 98.3572 15.9884, 98.4311 15.9392, 98.4815 15.8716, 98.5444 15.8109, 98.5794 15.7531, 98.5851 15.6976, 98.5851 15.6432, 98.5633 15.5882, 98.5192 15.5327 L 96.7828 13.3343, 95.4054 15.0197 C 95.3115 15.1239, 95.2485 15.2373, 95.217 15.3586, 95.2044 15.4142, 95.1981 15.4783, 95.1981 15.551, 95.1981 15.6065, 95.2044 15.6707, 95.217 15.7434, 95.2674 15.9575, 95.4466 16.0646, 95.7546 16.064 L 95.7546 16.8243 C 95.1134 16.8002, 94.5094 16.7819, 93.9432 16.7693 L 93.6884 16.7693 C 93.1983 16.7693, 92.6728 16.7911, 92.1129 16.8334 L 92.1129 16.064 C 92.6791 16.0646, 93.16 15.9667, 93.5562 15.7709, 93.764 15.6798, 93.9592 15.5562, 94.1413 15.4004, 94.3239 15.2447, 94.4905 15.0816, 94.6411 14.9098 L 96.3678 12.8121, 94.1224 9.96332 C 94.0285 9.86026, 93.9294 9.75664, 93.8252 9.65244, 93.7216 9.54882, 93.6065 9.4721, 93.4806 9.42287, 93.3363 9.36848, 93.1554 9.33813, 92.9384 9.33184, 92.7214 9.32611, 92.4775 9.32268, 92.2073 9.3221 L 92.2073 8.54349 C 92.8491 8.59902, 93.4657 8.62937, 94.0565 8.63509, 94.1132 8.63567, 94.1825 8.62651, 94.2638 8.60761, 94.9245 8.60818, 95.6166 8.587, 96.3397 8.54349 L 96.3397 9.3221 C 96.0443 9.32268, 95.8336 9.3868, 95.7076 9.51447, 95.651 9.58202, 95.6223 9.64328, 95.6223 9.69767, 95.6223 9.7532, 95.6412 9.8053, 95.679 9.85339 L 97.2076 11.7862, 98.3681 10.3755 C 98.5255 10.1992, 98.604 10.0097, 98.604 9.80759, 98.604 9.7532, 98.5977 9.70111, 98.5851 9.65187, 98.5542 9.56084, 98.4975 9.48298, 98.4156 9.41886, 98.3337 9.35474, 98.2078 9.32268, 98.0378 9.3221 L 98.0378 8.54349 C 98.6795 8.587, 99.2898 8.60818, 99.8681 8.60761, 99.9311 8.62021, 99.9912 8.62937, 100.047 8.63509, 100.544 8.63567, 101.085 8.60532, 101.67 8.54349 L 101.67 9.3221 C 101.105 9.32268, 100.62 9.42058, 100.217 9.61523, 100.004 9.7137, 99.8074 9.83736, 99.6276 9.98679, 99.4484 10.1368, 99.2864 10.3028, 99.1416 10.4854 L 97.6416 12.3083, 100.085 15.4228 C 100.18 15.5396, 100.276 15.6449, 100.373 15.7394, 100.47 15.8344, 100.588 15.906, 100.727 15.9541, 100.872 16.0096, 101.053 16.0417, 101.27 16.0508, 101.487 16.06, 101.73 16.0646, 102.001 16.064 L 102.001 16.8334 Z" stroke="none" fill="#000000" />
			<rect />
		</svg>
	</g>
	<path d="M -136.613 0 L 136.612 0" fill="none" stroke="#000000" stroke-width="5.19999981" stroke-linecap="round" stroke-linejoin="round" transform="matrix(0.192308 0 0 0.192308 -254.475 55.6344)" />
	<path d="M -60.5805 56.6798 L 60.5791 -56.6805" fill="none" stroke="#000000" stroke-width="5.19999981" stroke-linecap="round" stroke-linejoin="round" transform="matrix(0.192308 0 0 0.192308 -130.44 57.3571)" />
	<ellipse cx="1128.5535640716553" cy="696.81314659118652" rx="13.649999618530273" ry="13.649999618530273" stroke="none" fill="#000000" transform="matrix(0.192308 0 0 0.192308 -195.457 -82.2436)" />
	<ellipse cx="1226.0535640716553" cy="843.92899131774902" rx="13.649999618530273" ry="13.649999618530273" stroke="none" fill="#000000" transform="matrix(0.192308 0 0 0.192308 -195.457 -82.2436)" />
	<ellipse cx="1347.3868160247803" cy="755.81772422790527" rx="13.649999618530273" ry="13.649999618530273" stroke="none" fill="#000000" transform="matrix(0.192308 0 0 0.192308 -195.457 -82.2436)" />
	<ellipse cx="1413.8310298919678" cy="601.26199913024902" rx="13.649999618530273" ry="13.649999618530273" stroke="none" fill="#000000" transform="matrix(0.192308 0 0 0.192308 -195.457 -82.2436)" />
	<ellipse cx="1507.7208003997803" cy="822.64291954040527" rx="13.649999618530273" ry="13.649999618530273" stroke="none" fill="#000000" transform="matrix(0.192308 0 0 0.192308 -195.457 -82.2436)" />
	<path d="M -48.75 -72.8413 L 48.75 72.8416" fill="none" stroke="#000000" stroke-width="5.19999981" stroke-linecap="round" stroke-linejoin="round" transform="matrix(0.192308 0 0 0.192308 30.9478 66.0424)" />
	<path d="M -142.638 48.4924 L 142.639 -48.4917" fill="none" stroke="#000000" stroke-width="5.19999981" stroke-linecap="round" stroke-linejoin="round" transform="matrix(0.192308 0 0 0.192308 49.0033 42.709)" />
	<path d="M -46.9442 -109.659 L 46.9456 109.659" fill="none" stroke="#000000" stroke-width="5.19999981" stroke-linecap="round" stroke-linejoin="round" transform="matrix(0.192308 0 0 0.192308 85.4616 54.8688)" />
	<path d="M -140.833 10.6434 L 140.834 -10.6427" fill="none" stroke="#000000" stroke-width="5.19999981" stroke-linecap="round" stroke-linejoin="round" transform="matrix(0.192308 0 0 0.192308 67.4061 78.0036)" />
	<path d="M -60.6672 44.0559 L 60.666 -44.0554" fill="none" stroke="#000000" stroke-width="2.5999999" stroke-linecap="round" stroke-linejoin="round" stroke-dasharray="9.113, 6.487" transform="matrix(0.192308 0 0 0.192308 51.9896 71.5781)" />
	<path d="M -80.1671 -33.4127 L 80.1669 33.4125" fill="none" stroke="#000000" stroke-width="2.5999999" stroke-linecap="round" stroke-linejoin="round" stroke-dasharray="9.113, 6.487" transform="matrix(0.192308 0 0 0.192308 79.0729 69.5315)" />
	<g transform="matrix(1 0 -0 1 8.04357 2.9495)">
		<svg width="311.930176" height="47.9257622">
			<defs />
			<path d="M 11.9519 12.2076 C 11.9519 12.898, 11.8168 13.5501, 11.5466 14.1638, 11.2763 14.7776, 10.9128 15.3088, 10.4565 15.7577, 10.0008 16.2065, 9.46148 16.5655, 8.83859 16.8334, 8.2157 17.1025, 7.5493 17.2365, 6.83824 17.2365, 5.92623 17.2365, 5.05029 17.0613, 4.21042 16.7103, 3.37112 16.3594, 2.63373 15.863, 1.99824 15.2212, 1.34444 14.544, 0.847499 13.7854, 0.507428 12.9455, 0.16793 12.1062, -0.00210571 11.2309, -0.00210571 10.3206, -0.00210571 9.41142, 0.16793 8.5349, 0.507428 7.69217, 0.847499 6.84943, 1.34444 6.09544, 1.99824 5.42904, 2.63373 4.7884, 3.37112 4.28917, 4.21042 3.93192, 5.05029 3.57468, 5.92623 3.39606, 6.83824 3.39548, 7.57449 3.39606, 8.24432 3.54605, 8.84775 3.8449, 9.45175 4.14433, 9.95155 4.51989, 10.3477 4.97103 L 11.3668 3.53289 C 11.4046 3.44186, 11.4864 3.39606, 11.6124 3.39548 L 11.6691 3.39548 C 11.858 3.39606, 11.9519 3.49052, 11.9519 3.67945 L 11.9519 8.68089 C 11.9519 8.86467, 11.858 8.95913, 11.6691 8.96486 L 11.4521 8.96486 C 11.301 8.96543, 11.2065 8.88013, 11.1687 8.70837, 11.1435 8.09235, 11.0193 7.50782, 10.796 6.95478, 10.5727 6.4023, 10.2756 5.9214, 9.9046 5.51205, 9.53362 5.10328, 9.10481 4.77638, 8.61703 4.53192, 8.12925 4.28803, 7.59968 4.16551, 7.02717 4.16494, 6.30352 4.16551, 5.63082 4.31837, 5.00793 4.62352, 4.38504 4.92924, 3.85375 5.35633, 3.41349 5.90537, 2.92914 6.51681, 2.59938 7.2021, 2.42305 7.96239, 2.24671 8.72269, 2.15855 9.50874, 2.15855 10.3206, 2.15855 11.1272, 2.24671 11.9104, 2.42305 12.6707, 2.59938 13.431, 2.92914 14.1163, 3.41349 14.7266, 3.86004 15.2768, 4.3982 15.709, 5.02682 16.0233, 5.65601 16.3382, 6.32871 16.4951, 7.04549 16.4945, 7.63746 16.4951, 8.1928 16.3823, 8.71149 16.1562, 9.23019 15.9306, 9.67846 15.6203, 10.0557 15.2264, 10.433 14.8325, 10.7319 14.3791, 10.9517 13.8661, 11.1721 13.3531, 11.2821 12.8007, 11.2821 12.2076, 11.2821 12.0249, 11.3737 11.9333, 11.5557 11.9327 L 11.6691 11.9327 C 11.858 11.9333, 11.9519 12.0249, 11.9519 12.2076 Z" stroke="none" fill="#000000" />
			<path d="M 21.77 12.7388 C 21.77 13.3136, 21.6601 13.8633, 21.4402 14.3882, 21.2204 14.9138, 20.8992 15.3775, 20.4778 15.78, 20.0759 16.1716, 19.6105 16.4785, 19.0821 16.7012, 18.5536 16.9239, 17.9937 17.035, 17.4029 17.035, 16.8121 17.035, 16.2522 16.9256, 15.7237 16.7058, 15.1959 16.4859, 14.727 16.1773, 14.3182 15.78, 13.8906 15.3712, 13.5699 14.9058, 13.3558 14.3837, 13.1423 13.8615, 13.0352 13.3136, 13.0352 12.7388, 13.0352 12.1532, 13.144 11.5887, 13.361 11.0448, 13.578 10.5015, 13.8968 10.0126, 14.3182 9.57859, 14.7207 9.16982, 15.1879 8.84807, 15.7191 8.61277, 16.2504 8.37804, 16.8121 8.2601, 17.4029 8.25953, 17.9937 8.2601, 18.5536 8.37804, 19.0821 8.61277, 19.6105 8.84807, 20.0759 9.16982, 20.4778 9.57859, 20.9055 10.0188, 21.2278 10.5089, 21.4448 11.0494, 21.6618 11.5898, 21.77 12.1532, 21.77 12.7388 Z M 19.978 12.5282 C 19.978 12.0587, 19.9454 11.5944, 19.879 11.1364, 19.8132 10.6784, 19.6511 10.2599, 19.3929 9.88087, 19.1542 9.55798, 18.8617 9.30607, 18.5159 9.12573, 18.1701 8.94597, 17.7991 8.85551, 17.4029 8.85494, 17.0067 8.85551, 16.6357 8.94597, 16.2899 9.12573, 15.9441 9.30607, 15.6516 9.55798, 15.4123 9.88087, 15.1547 10.2542, 14.9932 10.6709, 14.9268 11.1318, 14.861 11.5933, 14.8278 12.0587, 14.8278 12.5282, 14.8278 13.0234, 14.8581 13.5134, 14.9176 13.9989, 14.9772 14.4844, 15.1421 14.9316, 15.4123 15.3403, 15.6264 15.6586, 15.9127 15.9105, 16.271 16.0966, 16.6294 16.2833, 17.0067 16.376, 17.4029 16.3754, 17.7991 16.376, 18.1764 16.2833, 18.5347 16.0966, 18.8931 15.9105, 19.1794 15.6586, 19.3929 15.3403, 19.6637 14.9316, 19.8292 14.4844, 19.8887 13.9989, 19.9483 13.5134, 19.978 13.0234, 19.978 12.5282 Z" stroke="none" fill="#000000" />
			<path d="M 32.5199 16.8334 C 31.7213 16.7911, 30.9604 16.7693, 30.2368 16.7693, 29.5017 16.7693, 28.75 16.7911, 27.9828 16.8334 L 27.9828 16.064 C 28.2656 16.0646, 28.525 16.06, 28.7608 16.0508, 28.9967 16.0417, 29.1748 16.0096, 29.2939 15.9541, 29.3631 15.918, 29.4089 15.8556, 29.4307 15.7668, 29.4524 15.6787, 29.4633 15.5819, 29.4633 15.4777 L 29.4633 11.0076 C 29.4633 10.703, 29.4479 10.4127, 29.4164 10.1379, 29.3855 9.86313, 29.2973 9.61294, 29.1524 9.38623, 29.0643 9.24024, 28.9337 9.13375, 28.7608 9.06619, 28.588 8.99921, 28.4042 8.96543, 28.209 8.96486, 27.8506 8.96543, 27.5162 9.04043, 27.2048 9.18985, 26.8933 9.33985, 26.6277 9.54138, 26.4073 9.79443, 26.1874 10.048, 26.0111 10.3458, 25.8788 10.6875, 25.7472 11.0299, 25.6807 11.3866, 25.6807 11.7587 L 25.6807 15.4777 C 25.6807 15.5819, 25.6933 15.6787, 25.7185 15.7668, 25.7437 15.8556, 25.7941 15.918, 25.8697 15.9541, 25.9893 16.0096, 26.1685 16.0417, 26.4073 16.0508, 26.6466 16.06, 26.9042 16.0646, 27.1807 16.064 L 27.1807 16.8243 C 26.8601 16.8123, 26.5647 16.8031, 26.2945 16.7968, 26.0243 16.7911, 25.7598 16.7819, 25.5016 16.7693 L 24.9073 16.7693 C 24.1716 16.7693, 23.4199 16.7911, 22.6527 16.8334 L 22.6527 16.064 C 22.9361 16.0646, 23.1955 16.06, 23.4314 16.0508, 23.6672 16.0417, 23.8453 16.0096, 23.9644 15.9541, 24.0399 15.918, 24.0897 15.8556, 24.1149 15.7668, 24.1401 15.6787, 24.1527 15.5819, 24.1527 15.4777 L 24.1527 10.2748 C 24.1527 10.1042, 24.1453 9.949, 24.1292 9.80817, 24.1138 9.6679, 24.0525 9.55454, 23.9455 9.46867, 23.839 9.39596, 23.6661 9.35359, 23.4268 9.341, 23.1875 9.32897, 22.9298 9.32268, 22.6527 9.3221 L 22.6527 8.56181, 24.2752 8.44273, 25.5771 8.34197, 25.5771 9.91751 C 25.6968 9.63698, 26.0036 9.30607, 26.4971 8.92421, 26.9906 8.54292, 27.574 8.3517, 28.2467 8.35113, 28.5994 8.3517, 28.9624 8.39292, 29.3362 8.47536, 29.7106 8.5578, 30.0393 8.73643, 30.3221 9.01123, 30.6049 9.28604, 30.7904 9.60206, 30.8786 9.95931, 30.9667 10.3166, 31.0108 10.6664, 31.0108 11.0076 L 31.0108 15.4777 C 31.0108 15.5819, 31.0234 15.6787, 31.0486 15.7668, 31.0738 15.8556, 31.1236 15.918, 31.1992 15.9541, 31.3188 16.0096, 31.498 16.0417, 31.7368 16.0508, 31.9761 16.06, 32.2371 16.0646, 32.5199 16.064 L 32.5199 16.8334 Z" stroke="none" fill="#000000" />
			<path d="M 42.5783 9.3221 C 42.3333 9.32268, 42.1209 9.34558, 41.9417 9.39138, 41.7625 9.43718, 41.6039 9.50874, 41.4653 9.60607, 41.3142 9.71027, 41.1871 9.83736, 41.0835 9.98679, 40.9799 10.1368, 40.89 10.2965, 40.8144 10.4671 L 38.2015 16.7693 C 38.1259 16.9468, 37.9908 17.035, 37.7956 17.035 L 37.7394 17.035 C 37.5505 17.035, 37.4188 16.9468, 37.3433 16.7693 L 34.5225 9.94499 C 34.4721 9.84194, 34.4172 9.73946, 34.3576 9.6387, 34.2981 9.53794, 34.2208 9.46638, 34.1263 9.42287, 34.013 9.36848, 33.8527 9.33813, 33.6454 9.33184, 33.4382 9.32611, 33.2115 9.32268, 32.9659 9.3221 L 32.9659 8.54349 C 33.6202 8.59902, 34.2431 8.62937, 34.834 8.63509, 34.9032 8.63567, 34.9788 8.62651, 35.0601 8.60761, 35.7208 8.60818, 36.4124 8.587, 37.1354 8.54349 L 37.1354 9.3221 C 36.9156 9.32268, 36.7301 9.32897, 36.579 9.341, 36.4284 9.35359, 36.2899 9.39596, 36.1639 9.46867, 36.0883 9.5242, 36.0505 9.60034, 36.0505 9.69767, 36.0505 9.74691, 36.0603 9.80817, 36.0792 9.88087 L 38.2015 15.0197, 40.1257 10.3938 C 40.1823 10.2845, 40.2104 10.1654, 40.2104 10.0366 L 40.2104 9.99996 C 40.1978 9.87229, 40.1526 9.75206, 40.0741 9.6387, 39.9957 9.52592, 39.8921 9.44519, 39.7627 9.39596, 39.6339 9.34729, 39.469 9.32268, 39.2675 9.3221 L 39.2675 8.54349 C 39.8589 8.587, 40.4125 8.60818, 40.9278 8.60761, 40.9844 8.62021, 41.0411 8.62937, 41.0972 8.63509, 41.5564 8.63567, 42.0504 8.60532, 42.5783 8.54349 L 42.5783 9.3221 Z" stroke="none" fill="#000000" />
			<path d="M 50.8504 14.4976 C 50.8006 14.8949, 50.6735 15.2493, 50.4691 15.5607, 50.2648 15.8722, 50.0117 16.1378, 49.7094 16.3577, 49.4077 16.5775, 49.0711 16.7453, 48.7001 16.8609, 48.3291 16.9771, 47.9455 17.035, 47.5493 17.035, 46.9585 17.035, 46.3957 16.9222, 45.861 16.6966, 45.3263 16.471, 44.8545 16.1533, 44.4458 15.7434, 44.0181 15.3163, 43.7004 14.8371, 43.4931 14.3058, 43.2859 13.7745, 43.1817 13.2129, 43.1817 12.6198, 43.1817 12.0461, 43.2807 11.4954, 43.4788 10.9669, 43.6769 10.4391, 43.974 9.96389, 44.3702 9.54195, 44.748 9.13318, 45.1883 8.81772, 45.691 8.59445, 46.1942 8.37174, 46.7226 8.2601, 47.2757 8.25953, 47.7663 8.2601, 48.2426 8.34254, 48.7047 8.50742, 49.1673 8.67231, 49.5743 8.94081, 49.9264 9.31294, 50.2785 9.72859, 50.5207 10.1854, 50.6523 10.683, 50.7846 11.181, 50.8504 11.6831, 50.8504 12.1892, 50.8504 12.3913, 50.7468 12.4921, 50.5396 12.4915 L 44.9742 12.4915, 44.9742 12.6198 C 44.9742 13.0783, 45.0154 13.5301, 45.0967 13.9755, 45.1723 14.477, 45.3515 14.9287, 45.6343 15.3312, 45.8736 15.6432, 46.1673 15.8951, 46.5165 16.0875, 46.8658 16.2798, 47.235 16.376, 47.6243 16.3754, 47.9203 16.376, 48.2049 16.3291, 48.4785 16.234, 48.7522 16.1396, 49.0052 16.0039, 49.2377 15.8264, 49.4707 15.6495, 49.6671 15.4434, 49.8274 15.2081, 49.9877 14.9733, 50.1056 14.7117, 50.1812 14.4243, 50.219 14.2783, 50.3191 14.205, 50.4829 14.2045 L 50.5865 14.2045 C 50.7565 14.2417, 50.8447 14.3396, 50.8504 14.4976 Z M 49.3699 11.9144 C 49.3573 11.5423, 49.3132 11.161, 49.2377 10.77, 49.1621 10.3795, 49.0115 10.016, 48.7848 9.67935, 48.6091 9.42344, 48.3892 9.22192, 48.1247 9.07535, 47.8608 8.92879, 47.578 8.85551, 47.2757 8.85494, 46.9236 8.85551, 46.5995 8.95055, 46.3041 9.13947, 46.0087 9.32897, 45.7602 9.5826, 45.5587 9.89977, 45.3578 10.2175, 45.2192 10.5519, 45.1437 10.9028, 45.0681 11.2543, 45.0211 11.5915, 45.0022 11.9144 L 49.3699 11.9144 Z" stroke="none" fill="#000000" />
			<path d="M 61.1899 16.8334 C 60.555 16.7911, 59.9607 16.7693, 59.4071 16.7693 L 59.1432 16.7693 C 58.4894 16.7819, 57.8006 16.8002, 57.077 16.8243 L 57.077 16.064 C 57.2281 16.0646, 57.3529 16.0497, 57.4502 16.0188, 57.5476 15.9884, 57.6214 15.9392, 57.6712 15.8716, 57.7342 15.8109, 57.7691 15.7531, 57.7754 15.6976, 57.7754 15.6432, 57.7537 15.5882, 57.709 15.5327 L 55.9737 13.3343, 54.5963 15.0197 C 54.5024 15.1239, 54.4394 15.2373, 54.4079 15.3586, 54.3953 15.4142, 54.389 15.4783, 54.389 15.551, 54.389 15.6065, 54.3953 15.6707, 54.4079 15.7434, 54.4583 15.9575, 54.6375 16.0646, 54.9455 16.064 L 54.9455 16.8243 C 54.3043 16.8002, 53.7003 16.7819, 53.1341 16.7693 L 52.8793 16.7693 C 52.3893 16.7693, 51.8643 16.7911, 51.3044 16.8334 L 51.3044 16.064 C 51.8706 16.0646, 52.3515 15.9667, 52.7477 15.7709, 52.9549 15.6798, 53.1501 15.5562, 53.3322 15.4004, 53.5148 15.2447, 53.6814 15.0816, 53.832 14.9098 L 55.5587 12.8121, 53.3133 9.96332 C 53.2194 9.86026, 53.1204 9.75664, 53.0162 9.65244, 52.9125 9.54882, 52.798 9.4721, 52.6721 9.42287, 52.5278 9.36848, 52.3469 9.33813, 52.1299 9.33184, 51.9129 9.32611, 51.669 9.32268, 51.3988 9.3221 L 51.3988 8.54349 C 52.04 8.59902, 52.6566 8.62937, 53.2475 8.63509, 53.3041 8.63567, 53.3734 8.62651, 53.4547 8.60761, 54.1154 8.60818, 54.807 8.587, 55.5301 8.54349 L 55.5301 9.3221 C 55.2346 9.32268, 55.024 9.3868, 54.898 9.51447, 54.8419 9.58202, 54.8133 9.64328, 54.8133 9.69767, 54.8133 9.7532, 54.8322 9.8053, 54.8699 9.85339 L 56.398 11.7862, 57.5585 10.3755 C 57.7159 10.1992, 57.7943 10.0097, 57.7943 9.80759, 57.7943 9.7532, 57.788 9.70111, 57.7754 9.65187, 57.7439 9.56084, 57.6873 9.48298, 57.6054 9.41886, 57.5241 9.35474, 57.3982 9.32268, 57.2281 9.3221 L 57.2281 8.54349 C 57.8699 8.587, 58.4802 8.60818, 59.0584 8.60761, 59.1214 8.62021, 59.1809 8.62937, 59.2376 8.63509, 59.7346 8.63567, 60.275 8.60532, 60.8601 8.54349 L 60.8601 9.3221 C 60.2945 9.32268, 59.8101 9.42058, 59.4071 9.61523, 59.1935 9.7137, 58.9972 9.83736, 58.818 9.98679, 58.6388 10.1368, 58.4768 10.3028, 58.3319 10.4854 L 56.8319 12.3083, 59.2748 15.4228 C 59.3699 15.5396, 59.4655 15.6449, 59.5628 15.7394, 59.6601 15.8344, 59.7781 15.906, 59.9166 15.9541, 60.0615 16.0096, 60.2424 16.0417, 60.4594 16.0508, 60.6763 16.06, 60.9197 16.0646, 61.1899 16.064 L 61.1899 16.8334 Z" stroke="none" fill="#000000" />
			<path d="M 81.2107 16.8243 C 80.1985 16.7876, 79.2143 16.7693, 78.2582 16.7693, 77.3147 16.7693, 76.3369 16.7876, 75.3247 16.8243 L 75.3247 16.064 C 75.6705 16.0646, 76.0054 16.06, 76.3294 16.0508, 76.6535 16.0417, 76.8939 16.0096, 77.0508 15.9541, 77.139 15.9243, 77.2054 15.8647, 77.2489 15.776, 77.293 15.6878, 77.3147 15.5882, 77.3147 15.4777 L 77.3147 10.4488, 71.7494 10.4488, 71.7494 15.4777 C 71.7494 15.5882, 71.77 15.6878, 71.8106 15.776, 71.8518 15.8647, 71.9194 15.9243, 72.0133 15.9541, 72.177 16.0096, 72.4192 16.0417, 72.7398 16.0508, 73.0604 16.06, 73.3942 16.0646, 73.74 16.064 L 73.74 16.8243 C 72.7209 16.7876, 71.7368 16.7693, 70.787 16.7693, 69.8441 16.7693, 68.8662 16.7876, 67.8534 16.8243 L 67.8534 16.064 C 68.1992 16.0646, 68.533 16.06, 68.8536 16.0508, 69.1742 16.0417, 69.4164 16.0096, 69.5796 15.9541, 69.6677 15.9243, 69.7341 15.8647, 69.7782 15.776, 69.8223 15.6878, 69.8441 15.5882, 69.8441 15.4777 L 69.8441 5.15423 C 69.8441 5.04488, 69.8223 4.94584, 69.7782 4.8571, 69.7341 4.76893, 69.6677 4.70882, 69.5796 4.67791, 69.4164 4.62352, 69.1742 4.59317, 68.8536 4.58688, 68.533 4.58115, 68.1992 4.57772, 67.8534 4.57714 L 67.8534 3.82601 C 68.8725 3.8512, 69.8503 3.86322, 70.787 3.86265, 71.7431 3.86322, 72.7278 3.8512, 73.74 3.82601 L 73.74 4.57714 C 73.3942 4.57772, 73.0593 4.58115, 72.7352 4.58688, 72.4112 4.59317, 72.1707 4.62352, 72.0133 4.67791, 71.9257 4.70882, 71.8599 4.76893, 71.8158 4.8571, 71.7717 4.94584, 71.7494 5.04488, 71.7494 5.15423 L 71.7494 9.67935, 77.3147 9.67935, 77.3147 5.15423 C 77.3147 5.04488, 77.2947 4.94584, 77.2535 4.8571, 77.2128 4.76893, 77.1453 4.70882, 77.0508 4.67791, 76.8876 4.62352, 76.6455 4.59317, 76.3249 4.58688, 76.0043 4.58115, 75.6705 4.57772, 75.3247 4.57714 L 75.3247 3.82601 C 76.3438 3.8512, 77.3216 3.86322, 78.2582 3.86265, 79.2143 3.86322, 80.1985 3.8512, 81.2107 3.82601 L 81.2107 4.57714 C 80.8649 4.57772, 80.5317 4.58115, 80.2111 4.58688, 79.8905 4.59317, 79.6483 4.62352, 79.4845 4.67791, 79.3964 4.70882, 79.3305 4.76893, 79.2865 4.8571, 79.2429 4.94584, 79.2206 5.04488, 79.2206 5.15423 L 79.2206 15.4777 C 79.2206 15.5882, 79.2429 15.6878, 79.2865 15.776, 79.3305 15.8647, 79.3964 15.9243, 79.4845 15.9541, 79.6483 16.0096, 79.8905 16.0417, 80.2111 16.0508, 80.5317 16.06, 80.8649 16.0646, 81.2107 16.064 L 81.2107 16.8243 Z" stroke="none" fill="#000000" />
			<path d="M 89.0717 17.0441 L 89.0717 15.6976 C 88.9652 15.9243, 88.7059 16.2037, 88.2937 16.5363, 87.8815 16.8689, 87.3863 17.035, 86.8075 17.035, 86.4181 17.035, 86.0174 16.9983, 85.6052 16.925, 85.193 16.8518, 84.8203 16.6811, 84.4871 16.4121, 84.1728 16.1625, 83.9621 15.8602, 83.855 15.5058, 83.7485 15.152, 83.6947 14.8033, 83.6947 14.461 L 83.6947 10.2748 C 83.6947 10.1042, 83.6873 9.949, 83.6712 9.80817, 83.6558 9.6679, 83.5945 9.55454, 83.4875 9.46867, 83.381 9.39596, 83.2081 9.35359, 82.9688 9.341, 82.7295 9.32897, 82.4718 9.32268, 82.1947 9.3221 L 82.1947 8.56181, 85.2227 8.34197, 85.2227 14.461 C 85.2227 14.785, 85.2353 15.0861, 85.2605 15.3638, 85.2857 15.642, 85.3613 15.8539, 85.4872 15.9999, 85.6321 16.1716, 85.8256 16.2861, 86.0672 16.3439, 86.3094 16.4023, 86.5687 16.431, 86.8452 16.4304, 87.1601 16.431, 87.4492 16.3565, 87.7132 16.2065, 87.9777 16.0571, 88.2072 15.8584, 88.4019 15.6111, 88.5971 15.3638, 88.7465 15.077, 88.8502 14.7501, 88.9538 14.4237, 89.0053 14.0768, 89.0053 13.7098 L 89.0053 10.2748 C 89.0053 10.1042, 88.9979 9.949, 88.9818 9.80817, 88.9664 9.6679, 88.9114 9.55454, 88.817 9.46867, 88.7105 9.39596, 88.5387 9.35359, 88.3028 9.341, 88.067 9.32897, 87.8076 9.32268, 87.5248 9.3221 L 87.5248 8.56181, 90.5528 8.34197, 90.5528 15.1205 C 90.5528 15.2796, 90.5608 15.4325, 90.5763 15.5791, 90.5923 15.7256, 90.6553 15.8355, 90.7652 15.9088, 90.8751 15.9821, 91.048 16.0268, 91.2839 16.0417, 91.5198 16.0571, 91.7791 16.0646, 92.062 16.064 L 92.062 16.8151 Z" stroke="none" fill="#000000" />
			<path d="M 97.2528 16.8334 C 96.4731 16.7911, 95.7219 16.7693, 94.9983 16.7693, 94.2878 16.7693, 93.5424 16.7911, 92.7626 16.8334 L 92.7626 16.064 C 93.046 16.0646, 93.3054 16.06, 93.5412 16.0508, 93.7771 16.0417, 93.9552 16.0096, 94.0742 15.9541, 94.1498 15.918, 94.1996 15.8556, 94.2248 15.7668, 94.25 15.6787, 94.2626 15.5819, 94.2626 15.4777 L 94.2626 5.5298 C 94.2626 5.37179, 94.2552 5.21778, 94.2391 5.06778, 94.2237 4.91836, 94.1624 4.80386, 94.0554 4.72371, 93.9489 4.651, 93.776 4.60863, 93.5367 4.59604, 93.2973 4.58401, 93.0397 4.57772, 92.7626 4.57714 L 92.7626 3.83517, 95.7437 3.61533, 95.7437 15.4777 C 95.7437 15.5762, 95.758 15.6707, 95.786 15.7623, 95.8147 15.8539, 95.8662 15.918, 95.9418 15.9541, 96.0614 16.0096, 96.2389 16.0417, 96.4748 16.0508, 96.7106 16.06, 96.97 16.0646, 97.2528 16.064 L 97.2528 16.8334 Z" stroke="none" fill="#000000" />
			<path d="M 102.475 16.8334 C 101.695 16.7911, 100.944 16.7693, 100.221 16.7693, 99.5102 16.7693, 98.7648 16.7911, 97.985 16.8334 L 97.985 16.064 C 98.2684 16.0646, 98.5278 16.06, 98.7636 16.0508, 98.9995 16.0417, 99.1776 16.0096, 99.2966 15.9541, 99.3722 15.918, 99.422 15.8556, 99.4472 15.7668, 99.4724 15.6787, 99.485 15.5819, 99.485 15.4777 L 99.485 5.5298 C 99.485 5.37179, 99.4776 5.21778, 99.4615 5.06778, 99.4461 4.91836, 99.3848 4.80386, 99.2777 4.72371, 99.1713 4.651, 98.9984 4.60863, 98.759 4.59604, 98.5197 4.58401, 98.2621 4.57772, 97.985 4.57714 L 97.985 3.83517, 100.966 3.61533, 100.966 15.4777 C 100.966 15.5762, 100.98 15.6707, 101.008 15.7623, 101.037 15.8539, 101.089 15.918, 101.164 15.9541, 101.284 16.0096, 101.461 16.0417, 101.697 16.0508, 101.933 16.06, 102.192 16.0646, 102.475 16.064 L 102.475 16.8334 Z" stroke="none" fill="#000000" />
			<rect />
		</svg>
	</g>
	<path d="M -59.5059 20.2297 L 59.5057 -20.23" fill="none" stroke="#000000" stroke-width="5.19999981" stroke-linecap="round" stroke-linejoin="round" marker-end="url(#CustomMarker-01)" transform="matrix(0.192308 0 0 0.192308 87.8773 63.0082)" />
	<g transform="matrix(1 0 -0 1 103.886 52.7136)">
		<svg width="57.0837135" height="27.0494747">
			<defs />
			<path d="M 7.63199 2.61551 C 7.45238 2.61584, 7.29077 2.62467, 7.14683 2.64201, 7.00321 2.65968, 6.87366 2.70482, 6.7585 2.77778, 6.67246 2.82685, 6.60703 2.89424, 6.56188 2.97963, 6.51706 3.06534, 6.49449 3.15498, 6.49449 3.24887 L 6.49449 9.44114 C 6.49449 9.55662, 6.43691 9.61387, 6.32176 9.61387 L 6.25731 9.61387 C 6.19646 9.61387, 6.14771 9.58966, 6.11173 9.54059 L 1.52903 2.97668 C 1.50024 2.93514, 1.50744 2.93514, 1.55062 2.97668 L 1.55062 8.55129 C 1.55062 8.74693, 1.63863 8.90232, 1.81463 9.01715, 1.93339 9.09076, 2.06359 9.13623, 2.20558 9.15357, 2.34756 9.17124, 2.50852 9.17975, 2.68812 9.17942 L 2.68812 9.61911 C 2.22455 9.5949, 1.77538 9.58247, 1.34027 9.58247, 0.912685 9.58247, 0.465146 9.5949, -0.00234875 9.61911 L -0.00234875 9.17942 C 0.177583 9.17975, 0.338213 9.17026, 0.480195 9.15096, 0.622178 9.13198, 0.75271 9.08716, 0.871138 9.01715, 1.04387 8.90592, 1.13187 8.75053, 1.13547 8.55129 L 1.13547 2.68879 C 1.13907 2.68912, 1.13351 2.68389, 1.11912 2.67309, 1.00429 2.64201, 0.843657 2.62467, 0.636899 2.62107, 0.430141 2.6178, 0.217168 2.61584, -0.00234875 2.61551 L -0.00234875 2.18629, 2.08977 2.18629 C 2.15094 2.18662, 2.19936 2.21116, 2.23535 2.25957 L 6.07934 7.77137, 6.07934 3.24887 C 6.07934 3.15498, 6.05709 3.066, 6.01195 2.98225, 5.96713 2.8985, 5.90333 2.82881, 5.82057 2.77254, 5.70214 2.69959, 5.57095 2.6551, 5.42701 2.63939, 5.28339 2.62369, 5.12178 2.61584, 4.94184 2.61551 L 4.94184 2.18629 C 5.41261 2.20069, 5.86179 2.20756, 6.2897 2.20723, 6.7248 2.20756, 7.17202 2.20069, 7.63199 2.18629 L 7.63199 2.61551 Z" stroke="none" fill="#000000" />
			<path d="M 13.1365 7.27934 C 13.1365 7.6078, 13.0737 7.92186, 12.9477 8.22186, 12.8221 8.52218, 12.6386 8.78717, 12.3978 9.01715, 12.1678 9.24092, 11.9018 9.41627, 11.5999 9.54353, 11.2983 9.6708, 10.9783 9.73426, 10.64 9.73426, 10.3024 9.73426, 9.98246 9.67178, 9.68051 9.54615, 9.37887 9.42053, 9.11094 9.24419, 8.87703 9.01715, 8.63298 8.78357, 8.44977 8.5176, 8.32742 8.21924, 8.20507 7.92088, 8.14389 7.6078, 8.14389 7.27934, 8.14389 6.94467, 8.20605 6.6221, 8.33004 6.31131, 8.45403 6.00084, 8.63625 5.72146, 8.87703 5.47348, 9.10734 5.2399, 9.37429 5.05604, 9.67789 4.92158, 9.98148 4.78745, 10.3024 4.72006, 10.64 4.71973, 10.9783 4.72006, 11.2983 4.78745, 11.5999 4.92158, 11.9018 5.05604, 12.1678 5.2399, 12.3978 5.47348, 12.6425 5.72506, 12.8267 6.0051, 12.9507 6.31393, 13.0747 6.62275, 13.1365 6.94467, 13.1365 7.27934 Z M 12.1119 7.15895 C 12.1119 6.89069, 12.0932 6.62537, 12.0553 6.36365, 12.0177 6.10193, 11.9251 5.86279, 11.7779 5.64622, 11.6411 5.4617, 11.4739 5.31776, 11.2763 5.21471, 11.0787 5.11198, 10.8667 5.06029, 10.64 5.05997, 10.4136 5.06029, 10.2017 5.11198, 10.0041 5.21471, 9.80646 5.31776, 9.63929 5.4617, 9.50254 5.64622, 9.35532 5.85952, 9.26274 6.09768, 9.22479 6.36103, 9.18717 6.62472, 9.16819 6.89069, 9.16819 7.15895, 9.16819 7.44193, 9.18553 7.72197, 9.21955 7.99939, 9.2539 8.27682, 9.34812 8.53232, 9.50254 8.7659, 9.62489 8.9478, 9.78846 9.09174, 9.99326 9.19807, 10.1981 9.30472, 10.4136 9.35771, 10.64 9.35739, 10.8667 9.35771, 11.0823 9.30472, 11.2871 9.19807, 11.4919 9.09174, 11.6555 8.9478, 11.7779 8.7659, 11.9323 8.53232, 12.0268 8.27682, 12.0608 7.99939, 12.0949 7.72197, 12.1119 7.44193, 12.1119 7.15895 Z" stroke="none" fill="#000000" />
			<path d="M 17.0495 8.2634 C 17.0495 8.4381, 17.0263 8.6128, 16.9795 8.78717, 16.9327 8.96186, 16.8653 9.1189, 16.7773 9.25826, 16.6893 9.39795, 16.5751 9.51213, 16.4348 9.60079, 16.2948 9.68977, 16.1312 9.73426, 15.9441 9.73426, 15.7504 9.73426, 15.5564 9.70645, 15.3621 9.65051, 15.1681 9.5949, 14.9937 9.49217, 14.839 9.34201, 14.6845 9.19218, 14.5785 9.02206, 14.521 8.83166, 14.4634 8.64159, 14.4346 8.45217, 14.4346 8.2634 L 14.4346 5.32692, 13.4967 5.32692, 13.4967 4.98668 C 13.759 4.98701, 13.9766 4.93041, 14.149 4.81689, 14.3217 4.7037, 14.4663 4.55354, 14.5831 4.36674, 14.6999 4.18026, 14.7869 3.96369, 14.8445 3.71768, 14.9021 3.47166, 14.9306 3.20372, 14.9306 2.91387 L 15.3133 2.91387, 15.3133 4.88723, 16.8715 4.88723, 16.8715 5.32692, 15.3133 5.32692, 15.3133 8.2634 C 15.3133 8.42436, 15.3271 8.57518, 15.3539 8.7165, 15.3807 8.85783, 15.4301 8.98607, 15.5021 9.1009, 15.6244 9.27233, 15.788 9.35771, 15.9928 9.35739, 16.1008 9.35771, 16.195 9.33089, 16.2758 9.27658, 16.3569 9.2226, 16.426 9.14409, 16.4835 9.04103, 16.5411 8.93831, 16.5859 8.81956, 16.6183 8.6851, 16.6507 8.55097, 16.6667 8.41029, 16.6667 8.2634 L 16.6667 7.56723, 17.0495 7.56723, 17.0495 8.2634 Z" stroke="none" fill="#000000" />
			<rect />
		</svg>
	</g>
</svg>
